<svg xmlns="http://www.w3.org/2000/svg" width="899.464" height="926.294" viewBox="0 0 899.464 926.294">
  <g id="Group_25" data-name="Group 25" transform="translate(4.546 -116.297)">
    <g id="Layer_2" data-name="Layer 2" transform="matrix(0.799, 0.602, -0.602, 0.799, 452.468, -97.031)">
      <g id="Layer_1" data-name="Layer 1" transform="translate(-0.007 -0.001)">
        <path id="Path_72" data-name="Path 72" d="M0,489.791a.573.573,0,0,1,0-.215c4.3-10.722,7.167-22.261,13.13-32.008C30.42,429.028,66.787,415.64,97.706,425.1c33.815,10.364,55.818,40.681,54.814,75.556-1.591,55.072-64.676,90.306-112.811,63.071C19.641,552.375,6.626,535.933,1.695,513.285A15.481,15.481,0,0,0,.06,509.873a.645.645,0,0,1,0-.272Z" transform="translate(0.007 182.948)" fill="#c37b89"/>
        <path id="Path_73" data-name="Path 73" d="M646.076,509.6a.574.574,0,0,1,0,.215c-4.3,10.034-7.282,21.071-13.331,29.959-19.036,27.995-51.2,38.789-84.9,30.1-28.669-7.44-51.833-34.617-53.926-66.741a75.054,75.054,0,0,1,102.146-75.7c27.02,10.435,43.3,30.618,48.651,59.287a11.58,11.58,0,0,0,1.333,2.8.487.487,0,0,1,0,.272Z" transform="translate(213.992 183.034)" fill="#bccc9a"/>
        <path id="Path_74" data-name="Path 74" d="M461.386,220.743H260.821a.588.588,0,0,0-.588.6c0,10.507.358,21.086-.1,31.636-.487,11.095-.186,22.577-3.039,33.141-5.977,22.218-28.783,36.724-51.388,34.589-24.01-2.265-44.852-20.527-45.54-43.963-1.147-39.907-1.835-80,.874-119.777,2.867-41.34,35-74.811,75.9-84.4a.6.6,0,0,1,.717.4c20.67,62.2,62.44,98.978,129.8,96.126,61.05-2.566,98.577-38.789,116.868-96.5a.616.616,0,0,1,.745-.4c36.194,9.833,60.835,32.051,72.761,67.744a111.388,111.388,0,0,1,4.53,27.723c.559,33.987,1.018,68.016.115,102-1.118,42.788-51.761,66.3-83.942,38.072-11.252-9.862-16.47-23.207-16.613-39.047s0-31.306,0-47.3A.6.6,0,0,0,461.386,220.743Z" transform="translate(68.993 31.284)"/>
        <path id="Path_75" data-name="Path 75" d="M153.171,656.458a.588.588,0,0,1,0-.817c52.177-53.7,44.236-119.075,21.071-157.133-22.29-36.624-72.732-73.392-144.432-55.546a.6.6,0,0,1-.717-.4c-7.3-23.035-5.734-45.626,3.3-67.83,8.758-21.5,23.852-37.613,43.734-49.224,27.995-16.355,55.99-32.725,84.329-48.479,33.112-18.405,70.539-1.147,76.359,35.219,3.068,19.179-3.541,35.635-19.337,47-11.467,8.3-24.368,14.807-36.581,22.089-3.655,2.179-7.354,4.3-11.582,6.737a.616.616,0,0,0-.229.817c33.442,57.825,66.6,115.176,100.24,173.33a.573.573,0,0,0,.8.215c13.646-7.827,26.977-15.409,40.251-23.121,14.85-8.6,30.346-11.31,46.587-4.687,18.42,7.5,29.3,21.5,31.535,41.068,2.121,18.807-4.085,35.836-20.484,45.683-34.675,20.9-69.478,41.885-105.73,59.8C227.079,698.572,179.289,686.087,153.171,656.458Z" transform="translate(10.623 116.85)"/>
        <path id="Path_76" data-name="Path 76" d="M557.332,655.252a.616.616,0,0,1,0,.831c-32.553,34.546-80.272,42.043-123.59,18.635-29.357-15.868-58.068-32.969-86.823-49.883a51.087,51.087,0,0,1-25.2-49.683c2.466-20.871,14.635-35.162,34.947-41.971,15.051-5.031,29.213-2.05,42.659,5.734l40.609,23.365a.6.6,0,0,0,.817-.215l100.34-173.359a.588.588,0,0,0-.215-.817c-13.861-7.984-27.536-15.668-41.01-23.666-22.806-13.589-32.224-36.925-24.856-59.774,9.647-29.9,44.68-43.075,72.36-28.224,34.015,18.262,67.687,37.427,99.9,58.627,32.854,21.616,46.658,70.74,33.385,107.737a.6.6,0,0,1-.717.373c-32.267-8.787-63.745-6.422-93.832,8.844a122.8,122.8,0,0,0-53.137,51.948C507.965,549.565,512.666,610.686,557.332,655.252Z" transform="translate(139.326 117.068)"/>
        <path id="Path_77" data-name="Path 77" d="M323.19,0c41.354.229,75.2,34.044,75.255,75.226s-34.861,76.058-75.9,75.6c-41.283-.459-75.155-34.4-75.255-75.413C247.19,33.987,281.635-.229,323.19,0Z" transform="translate(107.193 0.001)" fill="#d1e8e4"/>
      </g>
    </g>
    <path id="Icon_awesome-question" data-name="Icon awesome-question" d="M36.893,0C21.016,0,10.732,6.505,2.658,18.107a4.779,4.779,0,0,0,1.03,6.539l8.581,6.506a4.774,4.774,0,0,0,6.615-.825c4.983-6.242,8.679-9.836,16.462-9.836,6.119,0,13.689,3.938,13.689,9.872,0,4.486-3.7,6.79-9.746,10.177-7.046,3.95-16.371,8.867-16.371,21.166v1.947a4.774,4.774,0,0,0,4.774,4.774H42.108a4.774,4.774,0,0,0,4.774-4.774V62.505c0-8.526,24.918-8.881,24.918-31.951C71.8,13.179,53.778,0,36.893,0ZM34.9,74.287A13.779,13.779,0,1,0,48.679,88.066,13.795,13.795,0,0,0,34.9,74.287Z" transform="translate(712.2 168)" fill="#fff"/>
    <path id="Icon_metro-cross" data-name="Icon metro-cross" d="M71.932,58.165h0L50.7,36.928,71.932,15.692h0a2.193,2.193,0,0,0,0-3.093L61.9,2.567a2.193,2.193,0,0,0-3.093,0h0L37.571,23.8,16.335,2.567h0a2.193,2.193,0,0,0-3.093,0L3.21,12.6a2.193,2.193,0,0,0,0,3.093h0L24.446,36.928,3.21,58.164h0a2.192,2.192,0,0,0,0,3.093L13.242,71.289a2.193,2.193,0,0,0,3.093,0h0L37.571,50.053,58.807,71.289h0a2.192,2.192,0,0,0,3.093,0L71.932,61.257a2.192,2.192,0,0,0,0-3.093Z" transform="translate(66.429 456.072)" fill="#fff"/>
    <path id="Icon_awesome-check" data-name="Icon awesome-check" d="M23.775,55.752,1.025,33a3.5,3.5,0,0,1,0-4.95l4.95-4.95a3.5,3.5,0,0,1,4.95,0L26.25,38.428,59.076,5.6a3.5,3.5,0,0,1,4.95,0l4.95,4.95a3.5,3.5,0,0,1,0,4.95l-40.25,40.25A3.5,3.5,0,0,1,23.775,55.752Z" transform="translate(635.6 886.5)" fill="#fff"/>
  </g>
</svg>
