<?xml version="1.0" encoding="utf-8"?>
<!-- Generator: Adobe Illustrator 22.0.1, SVG Export Plug-In . SVG Version: 6.00 Build 0)  -->
<svg version="1.1" id="Layer_1" xmlns="http://www.w3.org/2000/svg" xmlns:xlink="http://www.w3.org/1999/xlink" x="0px" y="0px"
	 viewBox="0 0 1000 1000" style="enable-background:new 0 0 1000 1000;" xml:space="preserve">
<style type="text/css">
	.st0{fill:#C37B89;}
	.st1{fill:#BCCC9A;}
	.st2{fill:#D1E8E4;}
</style>
<g>
	<path class="st0" d="M19.5,801.7c0-0.1,0-0.2,0-0.2c4.8-12,8.1-24.9,14.7-35.7c19.3-31.9,59.9-46.8,94.4-36.3
		c37.8,11.6,62.3,45.4,61.2,84.4c-1.8,61.5-72.2,100.8-126,70.5c-22.5-12.7-36.9-31-42.5-56.3c-0.3-1.3-1.2-2.6-1.8-3.8
		c0-0.1-0.1-0.2-0.1-0.3V801.7z"/>
	<path class="st1" d="M980,823.9c0,0.1,0,0.2-0.1,0.3c-4.9,11.2-8.1,23.5-14.9,33.5c-21.3,31.2-57.2,43.3-94.8,33.5
		c-32.1-8.3-57.9-38.7-60.2-74.5c-4.1-62.8,56.9-106.6,114.1-84.5c30.2,11.6,48.4,34.2,54.3,66.2c0.2,1.1,1,2.1,1.5,3.1
		c0.1,0.1,0.1,0.2,0.1,0.3V823.9z"/>
	<path d="M611.7,331.9H387.8c-0.4,0-0.7,0.3-0.7,0.7c0,11.7,0.4,23.6-0.1,35.3c-0.5,12.4-0.2,25.2-3.4,37
		c-6.7,24.8-32.2,41-57.4,38.6c-26.8-2.5-50.1-22.9-50.9-49.1c-1.3-44.6-2.1-89.3,1-133.7c3.2-46.2,39.1-83.6,84.8-94.3
		c0.3-0.1,0.7,0.1,0.8,0.4c23.1,69.5,69.7,110.5,144.9,107.4c68.2-2.9,110.1-43.3,130.6-107.8c0.1-0.3,0.5-0.5,0.8-0.4
		c40.4,11,67.9,35.8,81.3,75.7c2.8,8.3,4.9,22.2,5.1,31c0.6,38,1.1,76,0.1,113.9c-1.3,47.8-57.8,74.1-93.8,42.5
		c-12.6-11-18.4-25.9-18.5-43.6c-0.2-17.5,0-35,0-52.9C612.4,332.2,612.1,331.9,611.7,331.9"/>
	<path d="M202.4,914c-0.2-0.3-0.2-0.7,0-0.9c58.3-60,49.4-133,23.5-175.5c-24.9-40.9-81.2-82-161.3-62c-0.3,0.1-0.7-0.1-0.8-0.4
		c-8.1-25.7-6.4-51,3.7-75.7c9.8-24,26.6-42,48.8-55c31.3-18.3,62.5-36.6,94.2-54.1c37-20.6,78.8-1.3,85.3,39.3
		c3.4,21.4-4,39.8-21.6,52.5c-12.9,9.3-27.2,16.5-40.8,24.7c-4.1,2.4-8.2,4.8-12.9,7.5c-0.3,0.2-0.4,0.6-0.3,0.9
		c37.3,64.6,74.4,128.6,111.9,193.6c0.2,0.3,0.6,0.4,0.9,0.2c15.2-8.7,30.1-17.2,44.9-25.8c16.6-9.6,33.9-12.6,52-5.2
		c20.6,8.4,32.7,24,35.2,45.9c2.4,21-4.6,40-22.9,51c-38.7,23.3-77.6,46.8-118.1,66.8C284.9,961.1,231.5,947.1,202.4,914"/>
	<path d="M797.5,912.9c0.3,0.3,0.3,0.7,0,0.9c-36.3,38.6-89.7,46.9-138,20.8c-32.8-17.7-64.8-36.8-97-55.7
		c-19.4-11.4-30.8-33.1-28.1-55.5c2.8-23.3,16.3-39.3,39-46.9c16.8-5.6,32.6-2.3,47.6,6.4c14.7,8.5,29.4,16.9,45.4,26.1
		c0.3,0.2,0.7,0.1,0.9-0.2c37.2-64.4,74.4-128.6,112-193.6c0.2-0.3,0.1-0.7-0.2-0.9c-15.5-8.9-30.7-17.5-45.8-26.4
		c-25.5-15.1-36-41.2-27.8-66.7c10.8-33.4,49.9-48.1,80.8-31.5c38,20.4,75.6,41.8,111.6,65.5c36.7,24.1,52.1,79,37.3,120.3
		c-0.1,0.3-0.5,0.5-0.8,0.4c-36-9.8-71.2-7.2-104.8,9.9c-25.8,13.1-45.5,32.6-59.4,58C742.3,794.9,747.6,863.2,797.5,912.9"/>
	<path class="st2" d="M500.1,50.4c46.2,0.2,84,38,84,84c0.1,46.1-38.9,84.9-84.8,84.4c-46.1-0.5-83.9-38.4-84-84.2
		C415.2,88.4,453.7,50.2,500.1,50.4"/>
</g>
</svg>
